<?xml version="1.0" encoding="UTF-8"?>
<svg width="752pt" height="752pt" version="1.1" viewBox="0 0 752 752" xmlns="http://www.w3.org/2000/svg">
 <g fill="#4b535b">
  <path d="m488.14 362.22c0-11.934-9.6602-21.594-21.594-21.594-11.934 0-21.594 9.6602-21.594 21.594s9.6602 21.594 21.594 21.594c11.887 0.003906 21.594-9.6562 21.594-21.594z"/>
  <path d="m258.36 457.74 15.344-15.344-53.277-146.01 208.66-75.867 17.711 48.777 15.344-15.344-17.898-49.391c-0.94531-2.4609-2.6992-4.4531-5.0664-5.5391-2.3672-1.1367-5.0664-1.2305-7.5312-0.33203l-227.18 82.637c-2.4609 0.85156-4.4531 2.6992-5.5898 5.0664-1.043 2.3672-1.2305 5.0664-0.33203 7.5312z"/>
  <path d="m395.37 392.62h-0.09375l-117.73 117.73 3.9297 10.703c1.4219 4.0273 5.1602 6.4883 9.1875 6.4883 0.71094 0 1.4219-0.1875 2.082-0.33203v17c0 5.5391 4.2148 9.707 9.707 9.707h241.57c5.5391 0 9.8984-4.2148 9.8984-9.707l0.003906-241.62c0-5.5391-4.3555-9.9922-9.8984-9.9922h-48.777l-19.699 19.699h58.77v149.51l-14.207-21.266c-5.2578-7.3398-13.688-11.98-22.777-11.98-9.1875 0-17.617 4.6406-22.875 12.266l-13.688 20.223-48.164-58.77c-4.2148-5.2578-11.035-8.8555-17.238-9.6602z"/>
  <path d="m292.79 302.6v120.71l19.699-19.699 0.003906-91.309h91.258l19.699-19.699h-120.95c-5.4922 0-9.707 4.4492-9.707 9.9922z"/>
  <path d="m538.39 195-343.39 343.39c-5.1133 5.1133-5.1133 13.449 0 18.562 2.5586 2.5586 5.918 3.8359 9.2812 3.8359s6.7266-1.2773 9.2812-3.8359l343.39-343.39c5.1133-5.1133 5.1133-13.449 0-18.562-5.1133-5.1133-13.402-5.1133-18.566 0.003906z"/>
 </g>
</svg>
